<?xml version="1.0" encoding="UTF-8"?>
<svg xmlns="http://www.w3.org/2000/svg" width="1280" height="900" viewBox="0 0 1280 900">
  <style>
    .axis { stroke: #111; stroke-width: 2.2; fill: none; }
    .grid { stroke: #bdbdbd; stroke-width: 1; opacity: 0.75; }
    .tick { font: 24px Arial, sans-serif; fill: #111; }
    .label { font: 30px Arial, sans-serif; fill: #111; }
    .legend { font: 23px Arial, sans-serif; fill: #111; }
  </style>
  <rect width="100%" height="100%" fill="white"/>
  <line x1="120" y1="70" x2="120" y2="800" class="grid"/>
  <text x="120" y="842" class="tick" text-anchor="middle">0</text>
  <line x1="396.25" y1="70" x2="396.25" y2="800" class="grid"/>
  <text x="396.25" y="842" class="tick" text-anchor="middle">5</text>
  <line x1="672.5" y1="70" x2="672.5" y2="800" class="grid"/>
  <text x="672.5" y="842" class="tick" text-anchor="middle">10</text>
  <line x1="948.75" y1="70" x2="948.75" y2="800" class="grid"/>
  <text x="948.75" y="842" class="tick" text-anchor="middle">15</text>
  <line x1="1225" y1="70" x2="1225" y2="800" class="grid"/>
  <text x="1225" y="842" class="tick" text-anchor="middle">20</text>
  <line x1="120" y1="800" x2="1225" y2="800" class="grid"/>
  <text x="102" y="808" class="tick" text-anchor="end">80</text>
  <line x1="120" y1="687.6923076923077" x2="1225" y2="687.6923076923077" class="grid"/>
  <text x="102" y="695.6923076923077" class="tick" text-anchor="end">100</text>
  <line x1="120" y1="575.3846153846154" x2="1225" y2="575.3846153846154" class="grid"/>
  <text x="102" y="583.3846153846154" class="tick" text-anchor="end">120</text>
  <line x1="120" y1="463.07692307692304" x2="1225" y2="463.07692307692304" class="grid"/>
  <text x="102" y="471.07692307692304" class="tick" text-anchor="end">140</text>
  <line x1="120" y1="350.7692307692307" x2="1225" y2="350.7692307692307" class="grid"/>
  <text x="102" y="358.7692307692307" class="tick" text-anchor="end">160</text>
  <line x1="120" y1="238.46153846153842" x2="1225" y2="238.46153846153842" class="grid"/>
  <text x="102" y="246.46153846153842" class="tick" text-anchor="end">180</text>
  <line x1="120" y1="126.15384615384612" x2="1225" y2="126.15384615384612" class="grid"/>
  <text x="102" y="134.15384615384613" class="tick" text-anchor="end">200</text>
  <path d="M120.00,654.62 L129.70,601.16 L137.33,566.56 L143.93,552.38 L150.15,560.98 L156.13,564.52 L161.35,575.40 L166.98,581.97 L172.21,599.82 L177.37,614.06 L182.41,633.71 L187.65,651.52 L192.66,662.48 L197.99,674.76 L203.20,688.78 L208.43,699.20 L213.81,705.19 L219.28,710.33 L224.90,711.09 L230.44,708.72 L236.22,709.78 L241.67,718.77 L247.35,719.28 L252.83,720.09 L258.80,718.36 L264.27,719.99 L269.96,721.70 L275.70,713.56 L281.18,714.32 L286.77,712.62 L292.39,705.22 L297.57,702.86 L302.98,703.13 L308.42,699.04 L314.08,696.73 L319.49,700.38 L324.55,701.95 L329.90,704.93 L335.35,700.82 L340.99,698.18 L346.21,695.87 L351.52,692.83 L356.70,701.11 L361.60,694.69 L366.86,698.03 L372.01,702.84 L376.97,699.66 L381.81,697.84 L386.72,701.11 L391.56,701.85 L396.52,709.30 L401.32,707.13 L406.42,709.94 L411.80,710.38 L417.23,712.71 L422.60,712.85 L427.66,716.96 L433.03,712.60 L438.30,713.09 L443.22,712.56 L448.54,708.79 L453.57,709.53 L458.69,708.84 L463.57,708.02 L468.52,708.02 L473.30,709.39 L478.45,710.56 L483.25,713.94 L488.22,707.96 L493.23,711.20 L497.87,714.95 L502.67,713.10 L507.72,711.84 L512.57,713.09 L517.48,714.04 L522.54,708.71 L527.25,711.73 L532.16,708.51 L537.09,715.30 L542.06,716.46 L546.96,720.81 L551.79,721.33 L556.81,720.07 L561.71,721.91 L566.71,723.02 L571.93,721.71 L576.79,717.52 L581.80,718.11 L586.94,717.48 L591.82,718.08 L596.91,716.82 L602.03,714.79 L606.97,715.24 L612.11,718.93 L617.12,720.00 L622.28,715.42 L627.48,714.72 L632.50,711.68 L637.23,709.15 L642.03,711.53 L647.14,711.44 L652.36,707.96 L657.28,709.57 L662.23,707.59 L667.36,709.48 L671.96,705.47 L676.67,707.97 L681.27,711.56 L686.66,711.88 L691.60,709.51 L696.26,707.37 L701.15,710.87 L706.07,709.52 L711.14,709.27 L715.86,708.91 L720.50,712.60 L725.39,709.92 L729.98,712.59 L734.92,712.67 L740.22,714.16 L745.05,712.05 L749.66,712.10 L754.41,711.20 L759.11,712.53 L763.99,710.57 L768.77,713.80 L773.47,717.71 L778.33,713.70 L782.93,714.37 L787.63,713.41 L792.49,714.30 L797.50,715.97 L802.23,713.25 L806.92,714.33 L811.55,711.45 L816.28,711.24 L821.01,713.67 L825.70,711.94 L830.64,710.92 L835.41,714.57 L840.09,713.51 L844.65,712.17 L849.26,715.25 L853.85,714.64 L858.36,716.72 L862.89,714.37 L867.36,714.42 L872.15,715.51 L876.70,717.51 L881.59,719.33 L885.99,717.93 L890.64,720.25 L895.08,718.43 L899.94,717.59 L904.70,715.78 L909.33,717.59 L913.91,722.93 L918.34,721.04 L923.05,720.92 L927.70,721.93 L932.20,723.80 L936.81,720.38 L941.43,722.49 L945.82,717.71 L950.17,718.54 L954.60,716.69 L959.00,718.90 L963.63,720.67 L968.01,720.13 L972.27,718.23 L976.51,719.89 L981.23,724.05 L985.78,724.58 L990.35,723.68 L994.75,723.52 L999.07,724.01 L1003.78,722.16 L1008.33,719.77 L1012.75,724.53 L1017.34,724.41 L1022.08,720.98 L1026.72,719.59 L1030.99,723.72 L1035.41,725.12 L1040.02,717.06 L1044.46,722.36 L1048.75,722.45 L1053.18,722.39 L1057.59,725.47 L1062.04,723.21 L1066.62,719.71 L1071.01,719.36 L1075.49,720.34 L1079.86,721.44 L1084.19,721.31 L1088.77,724.31 L1093.01,723.21 L1097.40,720.04 L1101.76,721.64 L1106.37,719.43 L1110.59,721.10 L1114.90,720.11 L1119.38,720.47 L1123.73,722.65 L1128.08,725.67 L1132.43,725.25 L1136.81,724.27 L1141.31,726.04 L1145.58,726.63 L1149.75,723.92 L1153.92,722.70 L1158.37,725.64 L1162.65,724.97 L1166.74,723.69 L1171.15,722.46 L1175.47,721.96 L1179.70,726.64 L1184.03,726.30 L1188.12,725.00 L1192.29,726.68 L1196.46,724.68 L1200.67,726.75 L1204.78,726.85 L1209.06,727.90 L1213.07,726.87 L1217.56,730.50 L1221.75,729.24" fill="none" stroke="#ff7f0e" stroke-width="3.2" stroke-linejoin="round" stroke-linecap="round"/>
  <line x1="120" y1="755.0769230769231" x2="1225" y2="755.0769230769231" stroke="#111" stroke-width="2.6" stroke-dasharray="10 8"/>
  <rect x="120" y="70" width="1105" height="730" class="axis"/>
  <text x="672.5" y="882" class="label" text-anchor="middle">time (units of kappa^-1)</text>
  <text x="38" y="435" class="label" text-anchor="middle" transform="rotate(-90 38 435)">surface energy (mJ/m^2)</text>
  <rect x="850" y="88" width="335" height="105" rx="4" fill="white" stroke="#d0d0d0"/>
  <line x1="875" y1="122" x2="950" y2="122" stroke="#ff7f0e" stroke-width="3.2"/>
  <text x="970" y="130" class="legend">KMC simulation</text>
  <line x1="875" y1="165" x2="950" y2="165" stroke="#111" stroke-width="2.6" stroke-dasharray="10 8"/>
  <text x="970" y="173" class="legend">AE model</text>
</svg>
