<?xml version="1.0" encoding="UTF-8"?>
<svg xmlns="http://www.w3.org/2000/svg" width="1280" height="900" viewBox="0 0 1280 900">
  <style>
    .axis { stroke: #111; stroke-width: 2.2; fill: none; }
    .grid { stroke: #bdbdbd; stroke-width: 1; opacity: 0.75; }
    .tick { font: 24px Arial, sans-serif; fill: #111; }
    .label { font: 30px Arial, sans-serif; fill: #111; }
    .legend { font: 23px Arial, sans-serif; fill: #111; }
  </style>
  <rect width="100%" height="100%" fill="white"/>
  <line x1="120" y1="70" x2="120" y2="800" class="grid"/>
  <text x="120" y="842" class="tick" text-anchor="middle">0</text>
  <line x1="194.66216216216216" y1="70" x2="194.66216216216216" y2="800" class="grid"/>
  <text x="194.66216216216216" y="842" class="tick" text-anchor="middle">5</text>
  <line x1="269.3243243243243" y1="70" x2="269.3243243243243" y2="800" class="grid"/>
  <text x="269.3243243243243" y="842" class="tick" text-anchor="middle">10</text>
  <line x1="343.9864864864865" y1="70" x2="343.9864864864865" y2="800" class="grid"/>
  <text x="343.9864864864865" y="842" class="tick" text-anchor="middle">15</text>
  <line x1="418.64864864864865" y1="70" x2="418.64864864864865" y2="800" class="grid"/>
  <text x="418.64864864864865" y="842" class="tick" text-anchor="middle">20</text>
  <line x1="493.3108108108108" y1="70" x2="493.3108108108108" y2="800" class="grid"/>
  <text x="493.3108108108108" y="842" class="tick" text-anchor="middle">25</text>
  <line x1="567.972972972973" y1="70" x2="567.972972972973" y2="800" class="grid"/>
  <text x="567.972972972973" y="842" class="tick" text-anchor="middle">30</text>
  <line x1="642.6351351351351" y1="70" x2="642.6351351351351" y2="800" class="grid"/>
  <text x="642.6351351351351" y="842" class="tick" text-anchor="middle">35</text>
  <line x1="717.2972972972973" y1="70" x2="717.2972972972973" y2="800" class="grid"/>
  <text x="717.2972972972973" y="842" class="tick" text-anchor="middle">40</text>
  <line x1="791.9594594594595" y1="70" x2="791.9594594594595" y2="800" class="grid"/>
  <text x="791.9594594594595" y="842" class="tick" text-anchor="middle">45</text>
  <line x1="866.6216216216216" y1="70" x2="866.6216216216216" y2="800" class="grid"/>
  <text x="866.6216216216216" y="842" class="tick" text-anchor="middle">50</text>
  <line x1="941.2837837837837" y1="70" x2="941.2837837837837" y2="800" class="grid"/>
  <text x="941.2837837837837" y="842" class="tick" text-anchor="middle">55</text>
  <line x1="1015.945945945946" y1="70" x2="1015.945945945946" y2="800" class="grid"/>
  <text x="1015.945945945946" y="842" class="tick" text-anchor="middle">60</text>
  <line x1="1090.6081081081081" y1="70" x2="1090.6081081081081" y2="800" class="grid"/>
  <text x="1090.6081081081081" y="842" class="tick" text-anchor="middle">65</text>
  <line x1="1165.2702702702702" y1="70" x2="1165.2702702702702" y2="800" class="grid"/>
  <text x="1165.2702702702702" y="842" class="tick" text-anchor="middle">70</text>
  <line x1="120" y1="800" x2="1225" y2="800" class="grid"/>
  <text x="102" y="808" class="tick" text-anchor="end">80</text>
  <line x1="120" y1="687.6923076923077" x2="1225" y2="687.6923076923077" class="grid"/>
  <text x="102" y="695.6923076923077" class="tick" text-anchor="end">100</text>
  <line x1="120" y1="575.3846153846154" x2="1225" y2="575.3846153846154" class="grid"/>
  <text x="102" y="583.3846153846154" class="tick" text-anchor="end">120</text>
  <line x1="120" y1="463.07692307692304" x2="1225" y2="463.07692307692304" class="grid"/>
  <text x="102" y="471.07692307692304" class="tick" text-anchor="end">140</text>
  <line x1="120" y1="350.7692307692307" x2="1225" y2="350.7692307692307" class="grid"/>
  <text x="102" y="358.7692307692307" class="tick" text-anchor="end">160</text>
  <line x1="120" y1="238.46153846153842" x2="1225" y2="238.46153846153842" class="grid"/>
  <text x="102" y="246.46153846153842" class="tick" text-anchor="end">180</text>
  <line x1="120" y1="126.15384615384612" x2="1225" y2="126.15384615384612" class="grid"/>
  <text x="102" y="134.15384615384613" class="tick" text-anchor="end">200</text>
  <path d="M120.00,654.62 L122.62,601.16 L124.68,566.56 L126.47,552.38 L128.15,560.98 L129.77,564.52 L131.18,575.40 L132.70,581.97 L134.11,599.82 L135.50,614.06 L136.87,633.71 L138.28,651.52 L139.64,662.48 L141.08,674.76 L142.49,688.78 L143.90,699.20 L145.35,705.19 L146.83,710.33 L148.35,711.09 L149.85,708.72 L151.41,709.78 L152.88,718.77 L154.42,719.28 L155.90,720.09 L157.51,718.36 L158.99,719.99 L160.53,721.70 L162.08,713.56 L163.56,714.32 L165.07,712.62 L166.59,705.22 L167.99,702.86 L169.45,703.13 L170.92,699.04 L172.45,696.73 L173.92,700.38 L175.28,701.95 L176.73,704.93 L178.20,700.82 L179.73,698.18 L181.14,695.87 L182.57,692.83 L183.97,701.11 L185.30,694.69 L186.72,698.03 L188.11,702.84 L189.45,699.66 L190.76,697.84 L192.09,701.11 L193.39,701.85 L194.73,709.30 L196.03,707.13 L197.41,709.94 L198.86,710.38 L200.33,712.71 L201.78,712.85 L203.15,716.96 L204.60,712.60 L206.03,713.09 L207.36,712.56 L208.79,708.79 L210.15,709.53 L211.54,708.84 L212.86,708.02 L214.19,708.02 L215.49,709.39 L216.88,710.56 L218.17,713.94 L219.52,707.96 L220.87,711.20 L222.13,714.95 L223.43,713.10 L224.79,711.84 L226.10,713.09 L227.43,714.04 L228.80,708.71 L230.07,711.73 L231.40,708.51 L232.73,715.30 L234.07,716.46 L235.39,720.81 L236.70,721.33 L238.06,720.07 L239.38,721.91 L240.73,723.02 L242.14,721.71 L243.46,717.52 L244.81,718.11 L246.20,717.48 L247.52,718.08 L248.90,716.82 L250.28,714.79 L251.61,715.24 L253.00,718.93 L254.36,720.00 L255.75,715.42 L257.16,714.72 L258.51,711.68 L259.79,709.15 L261.09,711.53 L262.47,711.44 L263.88,707.96 L265.21,709.57 L266.55,707.59 L267.93,709.48 L269.18,705.47 L270.45,707.97 L271.70,711.56 L273.15,711.88 L274.49,709.51 L275.74,707.37 L277.07,710.87 L278.40,709.52 L279.77,709.27 L281.04,708.91 L282.30,712.60 L283.62,709.92 L284.86,712.59 L286.19,712.67 L287.63,714.16 L288.93,712.05 L290.18,712.10 L291.46,711.20 L292.73,712.53 L294.05,710.57 L295.34,713.80 L296.61,717.71 L297.93,713.70 L299.17,714.37 L300.44,713.41 L301.75,714.30 L303.11,715.97 L304.39,713.25 L305.65,714.33 L306.91,711.45 L308.18,711.24 L309.46,713.67 L310.73,711.94 L312.06,710.92 L313.35,714.57 L314.62,713.51 L315.85,712.17 L317.10,715.25 L318.34,714.64 L319.56,716.72 L320.78,714.37 L321.99,714.42 L323.28,715.51 L324.51,717.51 L325.84,719.33 L327.03,717.93 L328.28,720.25 L329.48,718.43 L330.80,717.59 L332.08,715.78 L333.33,717.59 L334.57,722.93 L335.77,721.04 L337.04,720.92 L338.30,721.93 L339.51,723.80 L340.76,720.38 L342.01,722.49 L343.19,717.71 L344.37,718.54 L345.57,716.69 L346.76,718.90 L348.01,720.67 L349.19,720.13 L350.34,718.23 L351.49,719.89 L352.76,724.05 L353.99,724.58 L355.23,723.68 L356.42,723.52 L357.59,724.01 L358.86,722.16 L360.09,719.77 L361.28,724.53 L362.52,724.41 L363.80,720.98 L365.06,719.59 L366.21,723.72 L367.41,725.12 L368.65,717.06 L369.85,722.36 L371.01,722.45 L372.21,722.39 L373.40,725.47 L374.60,723.21 L375.84,719.71 L377.03,719.36 L378.24,720.34 L379.42,721.44 L380.59,721.31 L381.83,724.31 L382.97,723.21 L384.16,720.04 L385.34,721.64 L386.59,719.43 L387.73,721.10 L388.89,720.11 L390.10,720.47 L391.28,722.65 L392.45,725.67 L393.63,725.25 L394.81,724.27 L396.03,726.04 L397.18,726.63 L398.31,723.92 L399.44,722.70 L400.64,725.64 L401.80,724.97 L402.90,723.69 L404.10,722.46 L405.26,721.96 L406.41,726.64 L407.58,726.30 L408.68,725.00 L409.81,726.68 L410.94,724.68 L412.07,726.75 L413.18,726.85 L414.34,727.90 L415.42,726.87 L416.64,730.50 L417.77,729.24 L418.95,729.85 L420.15,729.18 L421.34,729.45 L422.51,731.85 L423.67,730.95 L424.80,730.02 L425.91,729.16 L427.05,727.27 L428.20,727.65 L429.38,729.78 L430.55,727.29 L431.69,724.96 L432.84,725.21 L433.99,724.26 L435.01,725.55 L436.16,726.33 L437.28,727.69 L438.45,730.51 L439.60,731.21 L440.76,732.59 L441.94,731.03 L443.10,732.39 L444.25,731.94 L445.37,728.62 L446.49,728.72 L447.66,732.00 L448.79,731.54 L449.94,733.26 L451.07,732.12 L452.13,731.88 L453.25,733.84 L454.42,732.55 L455.57,733.21 L456.71,731.39 L457.77,734.02 L458.98,732.93 L460.16,732.07 L461.34,731.19 L462.51,730.46 L463.66,732.26 L464.80,734.13 L465.91,733.11 L467.10,733.55 L468.26,733.65 L469.43,731.64 L470.62,730.65 L471.74,733.65 L472.90,733.99 L474.07,734.61 L475.16,733.52 L476.35,733.63 L477.47,734.30 L478.66,731.75 L479.74,730.78 L480.89,732.26 L481.98,731.71 L483.07,732.08 L484.31,732.63 L485.48,733.68 L486.60,733.04 L487.76,732.61 L488.93,733.12 L490.07,730.91 L491.30,728.90 L492.38,730.51 L493.43,731.57 L494.59,731.33 L495.75,733.39 L496.93,734.68 L498.08,732.03 L499.22,733.68 L500.35,731.78 L501.48,734.62 L502.58,734.19 L503.69,736.39 L504.76,734.66 L505.85,735.08 L506.95,737.70 L508.08,737.60 L509.23,732.71 L510.30,735.42 L511.40,735.15 L512.54,736.64 L513.69,735.96 L514.83,736.65 L515.91,737.03 L517.05,737.42 L518.20,738.51 L519.36,737.36 L520.53,735.79 L521.72,736.03 L522.78,733.18 L523.87,734.28 L524.98,736.00 L526.10,737.35 L527.22,736.00 L528.33,735.46 L529.49,736.94 L530.62,737.34 L531.64,735.91 L532.71,737.04 L533.79,736.38 L534.92,736.49 L535.98,736.75 L537.08,736.66 L538.20,736.50 L539.36,736.99 L540.48,736.36 L541.55,736.62 L542.65,737.19 L543.73,737.08 L544.84,737.16 L545.93,738.68 L547.07,738.73 L548.15,737.97 L549.32,737.51 L550.44,737.14 L551.55,734.42 L552.66,735.46 L553.76,738.21 L554.87,738.00 L556.01,736.61 L557.12,736.50 L558.17,739.57 L559.22,737.51 L560.31,740.79 L561.42,740.99 L562.55,740.69 L563.70,739.65 L564.83,739.53 L565.92,739.50 L567.03,738.60 L568.13,738.41 L569.24,738.99 L570.32,736.99 L571.39,738.82 L572.50,737.39 L573.57,737.89 L574.75,735.53 L575.87,735.61 L576.96,736.96 L578.05,735.46 L579.11,737.07 L580.19,738.63 L581.27,738.89 L582.34,737.37 L583.40,738.43 L584.45,737.61 L585.60,736.79 L586.69,740.48 L587.77,739.85 L588.86,738.56 L589.97,738.48 L591.10,740.14 L592.20,740.79 L593.29,739.11 L594.35,740.06 L595.48,738.71 L596.53,740.27 L597.67,741.25 L598.79,740.72 L599.82,742.17 L600.87,742.50 L602.00,738.34 L603.12,739.29 L604.23,739.63 L605.35,741.51 L606.49,741.63 L607.63,743.56 L608.68,740.78 L609.82,741.76 L610.90,740.95 L612.01,741.43 L613.14,740.72 L614.24,740.10 L615.34,741.24 L616.41,741.56 L617.51,744.40 L618.59,741.52 L619.74,739.23 L620.83,740.99 L621.88,739.72 L623.01,741.65 L624.12,740.96 L625.23,742.58 L626.34,742.32 L627.37,742.76 L628.50,744.80 L629.57,744.95 L630.67,743.60 L631.76,742.23 L632.81,743.81 L633.86,743.32 L634.95,743.43 L636.04,744.12 L637.16,743.58 L638.28,744.13 L639.38,742.69 L640.52,742.22 L641.57,743.61 L642.70,743.26 L643.79,741.75 L644.86,742.54 L645.92,742.72 L647.06,742.19 L648.17,739.37 L649.24,743.13 L650.30,741.80 L651.36,741.73 L652.50,743.46 L653.61,741.12 L654.71,740.79 L655.80,741.90 L656.87,742.64 L657.92,741.61 L658.96,739.81 L660.00,740.53 L661.01,741.86 L662.04,740.38 L663.12,741.01 L664.15,742.02 L665.18,740.07 L666.20,744.58 L667.29,744.14 L668.37,744.06 L669.43,744.24 L670.53,742.49 L671.54,744.84 L672.60,739.78 L673.64,742.46 L674.69,743.42 L675.78,744.82 L676.88,744.62 L677.95,744.59 L679.02,743.83 L680.08,743.06 L681.12,743.69 L682.23,741.72 L683.31,744.75 L684.36,739.74 L685.40,745.34 L686.51,743.89 L687.52,744.05 L688.63,741.16 L689.67,742.19 L690.72,741.56 L691.73,742.25 L692.73,741.51 L693.80,742.24 L694.82,742.55 L695.89,742.43 L696.99,743.37 L698.05,742.15 L699.10,741.92 L700.12,742.81 L701.13,744.15 L702.17,743.51 L703.19,744.68 L704.21,745.92 L705.32,746.21 L706.34,748.48 L707.35,747.81 L708.38,747.81 L709.38,749.24 L710.45,749.52 L711.47,750.13 L712.59,748.72 L713.64,747.78 L714.66,748.42 L715.71,747.07 L716.75,746.57 L717.84,746.29 L718.85,746.01 L719.87,746.73 L720.90,745.16 L721.88,746.59 L722.96,746.24 L724.02,747.00 L725.06,744.55 L726.10,745.64 L727.16,747.04 L728.24,746.99 L729.26,747.46 L730.32,747.05 L731.36,747.79 L732.40,746.02 L733.50,747.75 L734.59,746.97 L735.69,747.67 L736.74,746.84 L737.75,746.70 L738.85,748.03 L739.94,747.20 L740.95,747.43 L741.96,747.54 L742.97,746.87 L744.04,748.00 L745.04,747.73 L746.07,748.16 L747.10,747.51 L748.13,749.04 L749.16,746.19 L750.16,744.89 L751.24,745.33 L752.24,744.66 L753.34,744.09 L754.33,745.49 L755.31,747.86 L756.26,747.15 L757.30,746.95 L758.34,748.10 L759.38,746.19 L760.42,744.72 L761.46,743.36 L762.48,745.96 L763.44,746.38 L764.50,746.75 L765.53,746.56 L766.58,744.72 L767.62,745.42 L768.63,746.48 L769.67,745.36 L770.67,746.47 L771.70,748.03 L772.67,747.56 L773.73,746.78 L774.76,747.62 L775.78,744.91 L776.79,745.82 L777.84,748.19 L778.88,749.35 L779.87,749.10 L780.91,748.35 L782.00,747.07 L783.06,746.41 L784.09,746.96 L785.12,747.89 L786.16,747.50 L787.16,744.10 L788.16,746.28 L789.20,747.29 L790.17,746.35 L791.19,748.82 L792.24,745.69 L793.23,746.24 L794.25,746.42 L795.30,748.55 L796.38,750.95 L797.36,751.22 L798.40,751.19 L799.39,749.40 L800.33,751.85 L801.31,750.31 L802.35,749.75 L803.33,750.03 L804.36,749.91 L805.39,750.37 L806.41,749.19 L807.48,749.79 L808.50,750.52 L809.51,749.97 L810.55,750.08 L811.60,748.96 L812.62,747.78 L813.63,748.46 L814.60,744.28 L815.66,746.57 L816.67,748.57 L817.70,747.60 L818.73,746.66 L819.71,746.09 L820.74,746.82 L821.74,746.93 L822.73,746.27 L823.74,746.52 L824.70,744.34 L825.70,744.26 L826.74,744.34 L827.77,746.19 L828.76,745.57 L829.71,745.64 L830.68,747.14 L831.68,748.34 L832.68,744.23 L833.70,746.95 L834.69,747.15 L835.67,747.59 L836.71,749.02 L837.68,748.32 L838.72,748.27 L839.70,747.01 L840.69,749.34 L841.66,749.19 L842.70,749.17 L843.69,746.93 L844.68,750.77 L845.66,749.60 L846.70,751.60 L847.68,749.73 L848.69,751.07 L849.66,750.06 L850.65,748.95 L851.64,748.54 L852.68,748.63 L853.63,751.08 L854.61,749.32 L855.52,749.46 L856.53,750.24 L857.54,751.84 L858.53,752.09 L859.44,750.05 L860.45,750.24 L861.49,750.50 L862.46,751.68 L863.48,751.06 L864.45,750.93 L865.44,749.78 L866.40,752.45 L867.37,752.42 L868.40,752.16 L869.37,751.99 L870.36,752.07 L871.35,751.40 L872.35,751.25 L873.33,752.65 L874.37,751.19 L875.40,746.41 L876.44,749.50 L877.45,749.50 L878.51,749.73 L879.52,750.77 L880.52,752.05 L881.52,752.14 L882.53,751.80 L883.52,752.09 L884.61,752.04 L885.60,753.57 L886.59,753.61 L887.54,751.80 L888.49,751.92 L889.49,751.60 L890.53,752.55 L891.51,752.04 L892.56,751.31 L893.57,749.59 L894.53,751.96 L895.52,750.93 L896.50,751.08 L897.48,752.70 L898.54,749.91 L899.59,751.92 L900.62,750.46 L901.62,748.90 L902.66,750.96 L903.62,750.68 L904.64,750.81 L905.67,752.24 L906.71,752.88 L907.65,750.82 L908.65,752.31 L909.69,753.04 L910.69,750.68 L911.71,750.05 L912.79,751.00 L913.74,750.76 L914.78,751.39 L915.80,752.12 L916.80,752.64 L917.78,753.16 L918.80,753.94 L919.79,754.59 L920.79,751.26 L921.79,750.13 L922.77,750.18 L923.78,751.43 L924.78,750.10 L925.81,749.61 L926.84,749.70 L927.82,749.60 L928.85,749.63 L929.84,746.47 L930.80,746.94 L931.81,749.38 L932.82,750.80 L933.82,749.55 L934.82,751.17 L935.84,753.96 L936.80,754.96 L937.82,751.40 L938.81,751.34 L939.79,751.85 L940.76,752.14 L941.80,750.68 L942.82,749.93 L943.81,749.14 L944.79,750.45 L945.81,750.66 L946.80,751.94 L947.81,751.66 L948.81,752.80 L949.76,752.94 L950.75,753.01 L951.76,754.41 L952.80,754.75 L953.82,755.25 L954.83,754.66 L955.81,753.87 L956.79,750.99 L957.75,752.32 L958.72,751.92 L959.69,752.00 L960.74,751.95 L961.73,751.78 L962.71,750.87 L963.69,750.90 L964.66,748.49 L965.64,749.64 L966.62,749.08 L967.61,748.93 L968.61,751.82 L969.68,750.92 L970.65,750.70 L971.65,749.89 L972.69,751.62 L973.61,752.54 L974.64,753.10 L975.71,753.02 L976.73,753.73 L977.69,753.53 L978.72,750.54 L979.75,752.02 L980.77,751.96 L981.77,753.22 L982.73,750.14 L983.72,750.27 L984.69,752.34 L985.61,752.16 L986.64,752.56 L987.64,752.02 L988.66,751.91 L989.66,753.48 L990.67,753.21 L991.70,750.98 L992.70,751.43 L993.65,755.58 L994.63,754.47 L995.61,754.52 L996.58,755.13 L997.59,754.77 L998.55,754.94 L999.52,753.45 L1000.51,753.25 L1001.54,753.84 L1002.47,755.60 L1003.47,752.40 L1004.49,755.23 L1005.46,755.09 L1006.46,750.28 L1007.47,752.72 L1008.48,750.09 L1009.47,749.53 L1010.44,749.06 L1011.41,748.18 L1012.44,745.02 L1013.41,745.65 L1014.38,747.69 L1015.35,749.50 L1016.33,749.29 L1017.29,749.53 L1018.29,748.90 L1019.25,748.86 L1020.22,750.21 L1021.24,749.56 L1022.19,750.35 L1023.21,751.03 L1024.16,749.24 L1025.17,749.50 L1026.10,749.96 L1027.02,751.12 L1028.01,751.25 L1029.01,752.99 L1029.97,753.66 L1030.98,752.71 L1031.97,753.04 L1032.98,754.57 L1033.93,753.11 L1034.90,753.08 L1035.90,752.33 L1036.90,754.16 L1037.88,751.99 L1038.88,753.48 L1039.83,751.47 L1040.77,751.35 L1041.76,755.14 L1042.75,754.65 L1043.72,754.25 L1044.68,753.05 L1045.68,754.30 L1046.60,752.23 L1047.58,754.46 L1048.54,754.80 L1049.53,754.45 L1050.50,754.26 L1051.48,754.93 L1052.47,753.58 L1053.43,755.80 L1054.40,757.49 L1055.34,757.22 L1056.35,757.45 L1057.32,757.52 L1058.29,756.18 L1059.28,755.49 L1060.25,755.46 L1061.25,755.94 L1062.17,755.06 L1063.16,752.69 L1064.16,755.43 L1065.10,755.74 L1066.07,754.96 L1067.01,754.12 L1068.00,756.10 L1068.99,755.66 L1069.96,755.51 L1070.93,757.56 L1071.98,754.61 L1072.96,757.39 L1073.96,758.60 L1074.93,757.66 L1075.91,760.16 L1076.88,759.66 L1077.86,759.22 L1078.83,758.62 L1079.79,756.44 L1080.79,758.68 L1081.70,757.06 L1082.69,758.96 L1083.66,757.13 L1084.57,757.19 L1085.50,757.46 L1086.44,757.83 L1087.42,758.09 L1088.40,758.02 L1089.34,758.55 L1090.33,758.10 L1091.23,757.88 L1092.20,757.20 L1093.20,757.27 L1094.17,756.68 L1095.15,756.00 L1096.07,757.02 L1097.00,757.38 L1097.99,756.79 L1099.00,755.81 L1099.99,755.61 L1100.99,755.64 L1102.02,757.50 L1102.93,758.45 L1103.86,759.83 L1104.86,758.42 L1105.82,758.31 L1106.75,758.17 L1107.73,757.51 L1108.79,755.11 L1109.72,755.03 L1110.71,755.44 L1111.65,753.79 L1112.66,753.28 L1113.56,753.31 L1114.58,752.53 L1115.51,752.73 L1116.43,753.78 L1117.44,755.92 L1118.41,754.83 L1119.41,754.73 L1120.41,754.47 L1121.45,756.29 L1122.42,755.85 L1123.42,754.53 L1124.40,754.98 L1125.39,755.17 L1126.38,755.79 L1127.29,753.21 L1128.30,755.33 L1129.27,755.62 L1130.25,753.82 L1131.23,753.38 L1132.17,755.28 L1133.19,755.50 L1134.18,754.42 L1135.16,754.68 L1136.12,755.90 L1137.09,757.73 L1138.03,755.53 L1138.98,756.46 L1139.95,757.62 L1140.89,758.39 L1141.83,758.67 L1142.86,759.43 L1143.82,758.39 L1144.79,757.70 L1145.73,756.08 L1146.75,755.14 L1147.70,755.98 L1148.65,754.53 L1149.59,757.29 L1150.53,756.20 L1151.51,757.05 L1152.46,753.25 L1153.39,754.71 L1154.33,756.01 L1155.30,758.59 L1156.26,758.41 L1157.21,756.03 L1158.14,756.38 L1159.11,755.68 L1160.06,754.99 L1161.02,756.13 L1162.01,755.66 L1162.96,756.82 L1163.90,755.91 L1164.83,757.91 L1165.81,755.88 L1166.76,756.18 L1167.77,755.83 L1168.77,753.78 L1169.77,756.05 L1170.71,758.30 L1171.65,758.09 L1172.55,757.92 L1173.52,758.69 L1174.51,758.25 L1175.42,760.60 L1176.38,761.48 L1177.34,759.64 L1178.26,760.42 L1179.21,760.67 L1180.14,761.10 L1181.10,760.42 L1182.09,759.60 L1183.05,760.55 L1184.00,759.70 L1184.94,760.04 L1185.84,759.34 L1186.82,760.21 L1187.78,761.20 L1188.72,760.34 L1189.72,759.76 L1190.70,760.05 L1191.63,760.42 L1192.60,760.97 L1193.57,759.27 L1194.47,759.79 L1195.37,760.38 L1196.31,760.54 L1197.24,758.18 L1198.22,758.60 L1199.17,757.97 L1200.07,757.78 L1201.02,757.41 L1201.96,758.82 L1202.89,758.34 L1203.84,756.54 L1204.81,757.14 L1205.75,758.17 L1206.70,756.67 L1207.62,758.77 L1208.62,759.71 L1209.54,758.61 L1210.52,757.46 L1211.49,756.11 L1212.47,755.36 L1213.47,757.70 L1214.44,759.53" fill="none" stroke="#ff7f0e" stroke-width="3.2" stroke-linejoin="round" stroke-linecap="round"/>
  <line x1="120" y1="755.0769230769231" x2="1225" y2="755.0769230769231" stroke="#111" stroke-width="2.6" stroke-dasharray="10 8"/>
  <rect x="120" y="70" width="1105" height="730" class="axis"/>
  <text x="672.5" y="882" class="label" text-anchor="middle">time (units of kappa^-1)</text>
  <text x="38" y="435" class="label" text-anchor="middle" transform="rotate(-90 38 435)">surface energy (mJ/m^2)</text>
  <rect x="850" y="88" width="335" height="105" rx="4" fill="white" stroke="#d0d0d0"/>
  <line x1="875" y1="122" x2="950" y2="122" stroke="#ff7f0e" stroke-width="3.2"/>
  <text x="970" y="130" class="legend">KMC simulation</text>
  <line x1="875" y1="165" x2="950" y2="165" stroke="#111" stroke-width="2.6" stroke-dasharray="10 8"/>
  <text x="970" y="173" class="legend">AE model</text>
</svg>
